<svg xmlns="http://www.w3.org/2000/svg" width="120" height="16" viewBox="0 0 120 16"><g transform="translate(-0.005)"><g transform="translate(0.005)"><path d="M209.433.03c1.4,0,3.731,1.027,3.731,4.68v6.719c0,3.95-2.9,4.585-3.768,4.585h-7.774c-1.355,0-3.752-.964-3.752-4.633V4.514c0-2.33,1.339-4.469,3.8-4.484Zm-5.382,2.79a1.807,1.807,0,0,0-1.778,1.731v6.883a1.777,1.777,0,0,0,1.762,1.795h2.948a1.818,1.818,0,0,0,1.762-1.747V4.567A1.829,1.829,0,0,0,207,2.82Z" transform="translate(-93.163 -0.014)" fill="#009ddd"/><path d="M128.96,4.638C128.944,1.922,130.442,0,132.765,0h8.308c2.228,0,3.673,1.954,3.673,4.537v11.4h-4.387V12.41h-7.006v3.531H128.96ZM133.347,9.3h6.99V4.649a1.8,1.8,0,0,0-1.672-1.869H135.1a1.84,1.84,0,0,0-1.757,1.758Z" transform="translate(-60.719)" fill="#009ddd"/><path d="M164.32,16.006h4.408V2.833h4.35A1.86,1.86,0,0,1,174.9,4.6V16h4.35V4.712c0-2.176-1-4.7-3.821-4.643H164.32Z" transform="translate(-77.367 -0.032)" fill="#009ddd"/><path d="M84.47.07V16.006h4.35V2.834h3.821V16.006h4.408V2.834h2A1.85,1.85,0,0,1,100.811,4.6V16h4.408V4.6c0-2.293-1.233-4.527-3.762-4.527Z" transform="translate(-39.772 -0.033)" fill="#009ddd"/><g transform="translate(36.633 0.005)"><rect width="4.657" height="15.947" fill="#009ddd"/><path d="M73.62,15.07" transform="translate(-71.297 -7.096)" fill="#009ddd"/></g><path d="M33.94.07V16.006h4.408V12.475h6.467v3.531h4.4V.07h-4.4V9.362H38.348V.07Z" transform="translate(-15.982 -0.033)" fill="#009ddd"/><path d="M15.084.07H4.183A4.015,4.015,0,0,0,.277,2.717,8.792,8.792,0,0,0,.336,7.3,3.99,3.99,0,0,0,4.162,9.653H9.856c.82,0,1.349.588,1.413,1.7.058,1.059-.355,1.88-1.413,1.88H.51V16H11.443a3.58,3.58,0,0,0,3.641-2.409,7.64,7.64,0,0,0,0-5.289,3.8,3.8,0,0,0-3.762-2.234H5.564c-.82,0-1.291-.588-1.291-1.647s.471-1.647,1.291-1.647h9.52Z" transform="translate(-0.005 -0.033)" fill="#009ddd"/></g></g></svg>